<svg xmlns="http://www.w3.org/2000/svg" xmlns:xlink="http://www.w3.org/1999/xlink" width="500" zoomAndPan="magnify" viewBox="0 0 375 374.999991" height="500" preserveAspectRatio="xMidYMid meet" version="1.0"><path fill="#38b6ff" d="M 88.945312 43.324219 C 103.089844 54.933594 99.886719 108.023438 125.523438 77.546875 C 135.128906 66.128906 145.050781 54.445312 158.179688 47.367188 C 173.96875 38.859375 193.734375 39.980469 207.898438 51.304688 C 215.339844 57.25 220.378906 77.484375 229.328125 78.511719 C 232.664062 78.894531 235.78125 76.964844 238.503906 75.007812 C 257.777344 61.1875 275.113281 41.34375 298.734375 39.144531 C 325.371094 36.667969 349.121094 59.285156 357.238281 84.746094 C 372.480469 132.574219 353.371094 193.671875 346.875 241.96875 C 345.4375 252.660156 344.246094 264.46875 350.34375 273.367188 C 355.367188 280.695312 364.453125 284.535156 369.195312 292.050781 C 374.933594 301.144531 372.589844 313.683594 365.902344 322.109375 C 357.191406 333.09375 343.300781 337.9375 330.121094 341.03125 C 310.003906 345.75 284.871094 345.804688 273.269531 328.726562 C 268.871094 322.25 267.277344 314.320312 266.089844 306.582031 C 260.929688 272.972656 261.644531 238.472656 268.191406 205.105469 C 272.050781 185.421875 277.335938 162.921875 265.1875 146.957031 C 263.523438 144.765625 261.261719 142.648438 258.507812 142.589844 C 255.035156 142.515625 252.433594 145.644531 250.554688 148.566406 C 240.339844 164.441406 235.867188 182.132812 234.109375 200.710938 C 232.601562 216.621094 231.5 228.265625 232.667969 245.199219 C 235.679688 288.953125 248.941406 297.121094 241.351562 314.335938 C 227.839844 344.980469 178.023438 349.835938 159.601562 321.199219 C 152.371094 309.957031 152.90625 295.570312 154.152344 282.269531 C 156.132812 261.1875 159.289062 240.21875 163.59375 219.484375 C 167.21875 202.003906 174.175781 185.453125 169.929688 167.523438 C 169.132812 164.175781 165.730469 149.785156 158.625 148.925781 C 157.503906 148.789062 152.65625 148.550781 144.308594 161.867188 C 133.980469 178.347656 131.472656 194.574219 130.167969 204.238281 C 127.917969 220.976562 125.042969 242.359375 125.222656 272.039062 C 125.273438 280.578125 125.589844 291.757812 122.394531 306.648438 C 119.847656 318.515625 118.574219 324.449219 114.621094 329.953125 C 101.367188 348.40625 68.367188 345.027344 50.292969 343.375 C 31.722656 341.679688 22.4375 340.832031 17.140625 336.210938 C -0.0234375 321.238281 14.960938 289.585938 27.101562 192.886719 C 27.101562 192.886719 35.597656 125.246094 21.398438 106.160156 C 13.804688 95.949219 13.105469 91.832031 11.65625 83.605469 C 10.9375 79.535156 11.25 75.558594 12.394531 71.75 C 20 46.453125 66.523438 24.925781 88.945312 43.324219 Z M 88.945312 43.324219 " fill-opacity="1" fill-rule="nonzero"/></svg>